<mxfile host="app.diagrams.net" modified="2023-10-15T04:21:48.954Z" agent="Mozilla/5.0 (Windows NT 10.0; Win64; x64) AppleWebKit/537.36 (KHTML, like Gecko) Chrome/117.0.0.0 Safari/537.36 Edg/117.0.2045.60" etag="-nJ_QsmLUEiOmXQJ2Qfn" version="22.0.4" type="github">
  <diagram name="Page-1" id="e7e014a7-5840-1c2e-5031-d8a46d1fe8dd">
    <mxGraphModel dx="1042" dy="543" grid="1" gridSize="10" guides="1" tooltips="1" connect="1" arrows="1" fold="1" page="1" pageScale="1" pageWidth="1169" pageHeight="826" background="none" math="0" shadow="0">
      <root>
        <mxCell id="0" />
        <mxCell id="1" parent="0" />
        <mxCell id="9KnD5VtuCWjYIkfTTjhj-214" value="" style="rounded=0;whiteSpace=wrap;html=1;" vertex="1" parent="1">
          <mxGeometry x="820" y="1010" width="430" height="530" as="geometry" />
        </mxCell>
        <mxCell id="9KnD5VtuCWjYIkfTTjhj-182" value="" style="rounded=0;whiteSpace=wrap;html=1;" vertex="1" parent="1">
          <mxGeometry x="190" y="1010" width="630" height="440" as="geometry" />
        </mxCell>
        <mxCell id="9KnD5VtuCWjYIkfTTjhj-96" value="" style="rounded=0;whiteSpace=wrap;html=1;" vertex="1" parent="1">
          <mxGeometry x="240" y="710" width="580" height="300" as="geometry" />
        </mxCell>
        <mxCell id="9KnD5VtuCWjYIkfTTjhj-64" value="订单" style="swimlane;fontStyle=1;align=center;verticalAlign=top;childLayout=stackLayout;horizontal=1;startSize=26;horizontalStack=0;resizeParent=1;resizeParentMax=0;resizeLast=0;collapsible=1;marginBottom=0;whiteSpace=wrap;html=1;" vertex="1" parent="1">
          <mxGeometry x="505" y="832" width="80" height="160" as="geometry" />
        </mxCell>
        <mxCell id="9KnD5VtuCWjYIkfTTjhj-65" value="ID&lt;br&gt;付款人&lt;br&gt;购物车&lt;br&gt;应付款&lt;br&gt;时间&lt;br&gt;地址" style="text;strokeColor=none;fillColor=none;align=center;verticalAlign=top;spacingLeft=4;spacingRight=4;overflow=hidden;rotatable=0;points=[[0,0.5],[1,0.5]];portConstraint=eastwest;whiteSpace=wrap;html=1;" vertex="1" parent="9KnD5VtuCWjYIkfTTjhj-64">
          <mxGeometry y="26" width="80" height="94" as="geometry" />
        </mxCell>
        <mxCell id="9KnD5VtuCWjYIkfTTjhj-66" value="" style="line;strokeWidth=1;fillColor=none;align=left;verticalAlign=middle;spacingTop=-1;spacingLeft=3;spacingRight=3;rotatable=0;labelPosition=right;points=[];portConstraint=eastwest;strokeColor=inherit;" vertex="1" parent="9KnD5VtuCWjYIkfTTjhj-64">
          <mxGeometry y="120" width="80" height="8" as="geometry" />
        </mxCell>
        <mxCell id="9KnD5VtuCWjYIkfTTjhj-67" value="订单记录" style="text;strokeColor=none;fillColor=none;align=center;verticalAlign=top;spacingLeft=4;spacingRight=4;overflow=hidden;rotatable=0;points=[[0,0.5],[1,0.5]];portConstraint=eastwest;whiteSpace=wrap;html=1;" vertex="1" parent="9KnD5VtuCWjYIkfTTjhj-64">
          <mxGeometry y="128" width="80" height="32" as="geometry" />
        </mxCell>
        <mxCell id="9KnD5VtuCWjYIkfTTjhj-68" value="" style="html=1;verticalAlign=bottom;endArrow=block;curved=0;rounded=0;entryX=-0.002;entryY=0.854;entryDx=0;entryDy=0;entryPerimeter=0;exitX=1;exitY=0.878;exitDx=0;exitDy=0;exitPerimeter=0;" edge="1" parent="1" source="9KnD5VtuCWjYIkfTTjhj-54">
          <mxGeometry x="-0.0032" width="80" relative="1" as="geometry">
            <mxPoint x="430" y="950" as="sourcePoint" />
            <mxPoint x="504.68000000000006" y="949.7360000000001" as="targetPoint" />
            <mxPoint as="offset" />
          </mxGeometry>
        </mxCell>
        <mxCell id="9KnD5VtuCWjYIkfTTjhj-51" value="@顾客" style="swimlane;fontStyle=1;align=center;verticalAlign=top;childLayout=stackLayout;horizontal=1;startSize=26;horizontalStack=0;resizeParent=1;resizeParentMax=0;resizeLast=0;collapsible=1;marginBottom=0;whiteSpace=wrap;html=1;" vertex="1" parent="1">
          <mxGeometry x="270" y="730" width="110" height="230" as="geometry">
            <mxRectangle x="270" y="720" width="100" height="30" as="alternateBounds" />
          </mxGeometry>
        </mxCell>
        <mxCell id="9KnD5VtuCWjYIkfTTjhj-52" value="&lt;div style=&quot;&quot;&gt;&lt;span style=&quot;background-color: initial;&quot;&gt;用户名&lt;/span&gt;&lt;/div&gt;&lt;div style=&quot;&quot;&gt;&lt;span style=&quot;background-color: initial;&quot;&gt;密码&lt;/span&gt;&lt;/div&gt;&lt;div style=&quot;&quot;&gt;&lt;span style=&quot;background-color: initial;&quot;&gt;姓名&lt;/span&gt;&lt;/div&gt;&lt;div style=&quot;&quot;&gt;&lt;span style=&quot;background-color: initial;&quot;&gt;密码&lt;/span&gt;&lt;/div&gt;&lt;div style=&quot;&quot;&gt;&lt;span style=&quot;background-color: initial;&quot;&gt;地址&lt;/span&gt;&lt;/div&gt;&lt;div style=&quot;&quot;&gt;&lt;span style=&quot;background-color: initial;&quot;&gt;联系方式&lt;/span&gt;&lt;/div&gt;&lt;div style=&quot;&quot;&gt;&lt;span style=&quot;background-color: initial;&quot;&gt;购物车&lt;/span&gt;&lt;/div&gt;" style="text;strokeColor=none;fillColor=none;align=center;verticalAlign=top;spacingLeft=4;spacingRight=4;overflow=hidden;rotatable=0;points=[[0,0.5],[1,0.5]];portConstraint=eastwest;whiteSpace=wrap;html=1;" vertex="1" parent="9KnD5VtuCWjYIkfTTjhj-51">
          <mxGeometry y="26" width="110" height="114" as="geometry" />
        </mxCell>
        <mxCell id="9KnD5VtuCWjYIkfTTjhj-53" value="" style="line;strokeWidth=1;fillColor=none;align=left;verticalAlign=middle;spacingTop=-1;spacingLeft=3;spacingRight=3;rotatable=0;labelPosition=right;points=[];portConstraint=eastwest;strokeColor=inherit;" vertex="1" parent="9KnD5VtuCWjYIkfTTjhj-51">
          <mxGeometry y="140" width="110" height="8" as="geometry" />
        </mxCell>
        <mxCell id="9KnD5VtuCWjYIkfTTjhj-54" value="&lt;div style=&quot;&quot;&gt;&lt;span style=&quot;background-color: initial;&quot;&gt;@注册&lt;/span&gt;&lt;/div&gt;&lt;div style=&quot;&quot;&gt;&lt;span style=&quot;background-color: initial;&quot;&gt;@登录&lt;/span&gt;&lt;/div&gt;&lt;div style=&quot;&quot;&gt;&lt;span style=&quot;background-color: initial;&quot;&gt;商品浏览和搜索&lt;/span&gt;&lt;/div&gt;&lt;div style=&quot;&quot;&gt;&lt;span style=&quot;background-color: initial;&quot;&gt;购物车管理&lt;/span&gt;&lt;/div&gt;&lt;div style=&quot;&quot;&gt;&lt;span style=&quot;background-color: initial;&quot;&gt;下单&lt;/span&gt;&lt;/div&gt;&lt;div style=&quot;&quot;&gt;&lt;span style=&quot;background-color: initial;&quot;&gt;&lt;br&gt;&lt;/span&gt;&lt;/div&gt;" style="text;strokeColor=none;fillColor=none;align=center;verticalAlign=top;spacingLeft=4;spacingRight=4;overflow=hidden;rotatable=0;points=[[0,0.5],[1,0.5]];portConstraint=eastwest;whiteSpace=wrap;html=1;" vertex="1" parent="9KnD5VtuCWjYIkfTTjhj-51">
          <mxGeometry y="148" width="110" height="82" as="geometry" />
        </mxCell>
        <mxCell id="9KnD5VtuCWjYIkfTTjhj-97" value="" style="rounded=0;whiteSpace=wrap;html=1;" vertex="1" parent="1">
          <mxGeometry x="240" y="700" width="30" height="10" as="geometry" />
        </mxCell>
        <mxCell id="9KnD5VtuCWjYIkfTTjhj-55" value="购物车" style="swimlane;fontStyle=1;align=center;verticalAlign=top;childLayout=stackLayout;horizontal=1;startSize=26;horizontalStack=0;resizeParent=1;resizeParentMax=0;resizeLast=0;collapsible=1;marginBottom=0;whiteSpace=wrap;html=1;" vertex="1" parent="1">
          <mxGeometry x="665" y="740" width="90" height="158" as="geometry" />
        </mxCell>
        <mxCell id="9KnD5VtuCWjYIkfTTjhj-56" value="用户名&lt;br&gt;商品名称&lt;br&gt;商品数量&lt;br&gt;总价格" style="text;strokeColor=none;fillColor=none;align=center;verticalAlign=top;spacingLeft=4;spacingRight=4;overflow=hidden;rotatable=0;points=[[0,0.5],[1,0.5]];portConstraint=eastwest;whiteSpace=wrap;html=1;" vertex="1" parent="9KnD5VtuCWjYIkfTTjhj-55">
          <mxGeometry y="26" width="90" height="64" as="geometry" />
        </mxCell>
        <mxCell id="9KnD5VtuCWjYIkfTTjhj-57" value="" style="line;strokeWidth=1;fillColor=none;align=left;verticalAlign=middle;spacingTop=-1;spacingLeft=3;spacingRight=3;rotatable=0;labelPosition=right;points=[];portConstraint=eastwest;strokeColor=inherit;" vertex="1" parent="9KnD5VtuCWjYIkfTTjhj-55">
          <mxGeometry y="90" width="90" height="8" as="geometry" />
        </mxCell>
        <mxCell id="9KnD5VtuCWjYIkfTTjhj-72" value="商品添加&lt;br&gt;商品删除&lt;br&gt;商品数量编辑" style="text;strokeColor=none;fillColor=none;align=center;verticalAlign=top;spacingLeft=4;spacingRight=4;overflow=hidden;rotatable=0;points=[[0,0.5],[1,0.5]];portConstraint=eastwest;whiteSpace=wrap;html=1;" vertex="1" parent="9KnD5VtuCWjYIkfTTjhj-55">
          <mxGeometry y="98" width="90" height="60" as="geometry" />
        </mxCell>
        <mxCell id="9KnD5VtuCWjYIkfTTjhj-107" value="@管理员" style="swimlane;fontStyle=1;align=center;verticalAlign=top;childLayout=stackLayout;horizontal=1;startSize=26;horizontalStack=0;resizeParent=1;resizeParentMax=0;resizeLast=0;collapsible=1;marginBottom=0;whiteSpace=wrap;html=1;" vertex="1" parent="1">
          <mxGeometry x="420" y="1040" width="160" height="130" as="geometry" />
        </mxCell>
        <mxCell id="9KnD5VtuCWjYIkfTTjhj-108" value="用户名&lt;br&gt;密码" style="text;strokeColor=none;fillColor=none;align=center;verticalAlign=top;spacingLeft=4;spacingRight=4;overflow=hidden;rotatable=0;points=[[0,0.5],[1,0.5]];portConstraint=eastwest;whiteSpace=wrap;html=1;" vertex="1" parent="9KnD5VtuCWjYIkfTTjhj-107">
          <mxGeometry y="26" width="160" height="34" as="geometry" />
        </mxCell>
        <mxCell id="9KnD5VtuCWjYIkfTTjhj-109" value="" style="line;strokeWidth=1;fillColor=none;align=left;verticalAlign=middle;spacingTop=-1;spacingLeft=3;spacingRight=3;rotatable=0;labelPosition=right;points=[];portConstraint=eastwest;strokeColor=inherit;" vertex="1" parent="9KnD5VtuCWjYIkfTTjhj-107">
          <mxGeometry y="60" width="160" height="8" as="geometry" />
        </mxCell>
        <mxCell id="9KnD5VtuCWjYIkfTTjhj-110" value="商品管理&lt;br&gt;订单管理&lt;br&gt;用户管理" style="text;strokeColor=none;fillColor=none;align=center;verticalAlign=top;spacingLeft=4;spacingRight=4;overflow=hidden;rotatable=0;points=[[0,0.5],[1,0.5]];portConstraint=eastwest;whiteSpace=wrap;html=1;" vertex="1" parent="9KnD5VtuCWjYIkfTTjhj-107">
          <mxGeometry y="68" width="160" height="62" as="geometry" />
        </mxCell>
        <mxCell id="9KnD5VtuCWjYIkfTTjhj-124" value="管理" style="endArrow=none;html=1;endSize=12;startArrow=diamondThin;startSize=14;startFill=0;edgeStyle=orthogonalEdgeStyle;rounded=0;entryX=0;entryY=-0.031;entryDx=0;entryDy=0;exitX=1.01;exitY=-0.018;exitDx=0;exitDy=0;exitPerimeter=0;entryPerimeter=0;endFill=0;" edge="1" parent="1" source="9KnD5VtuCWjYIkfTTjhj-52" target="9KnD5VtuCWjYIkfTTjhj-56">
          <mxGeometry relative="1" as="geometry">
            <mxPoint x="675" y="870" as="sourcePoint" />
            <mxPoint x="740" y="868" as="targetPoint" />
          </mxGeometry>
        </mxCell>
        <mxCell id="9KnD5VtuCWjYIkfTTjhj-125" value="1" style="edgeLabel;resizable=0;html=1;align=left;verticalAlign=top;" connectable="0" vertex="1" parent="9KnD5VtuCWjYIkfTTjhj-124">
          <mxGeometry x="-1" relative="1" as="geometry" />
        </mxCell>
        <mxCell id="9KnD5VtuCWjYIkfTTjhj-126" value="1" style="edgeLabel;resizable=0;html=1;align=right;verticalAlign=top;" connectable="0" vertex="1" parent="9KnD5VtuCWjYIkfTTjhj-124">
          <mxGeometry x="1" relative="1" as="geometry" />
        </mxCell>
        <mxCell id="9KnD5VtuCWjYIkfTTjhj-127" value="" style="endArrow=none;html=1;edgeStyle=orthogonalEdgeStyle;rounded=0;exitX=1;exitY=0.5;exitDx=0;exitDy=0;entryX=1;entryY=0.5;entryDx=0;entryDy=0;" edge="1" parent="1" source="9KnD5VtuCWjYIkfTTjhj-65" target="9KnD5VtuCWjYIkfTTjhj-56">
          <mxGeometry relative="1" as="geometry">
            <mxPoint x="490" y="880" as="sourcePoint" />
            <mxPoint x="650" y="880" as="targetPoint" />
            <Array as="points">
              <mxPoint x="680" y="905" />
              <mxPoint x="680" y="930" />
              <mxPoint x="770" y="930" />
              <mxPoint x="770" y="788" />
              <mxPoint x="755" y="788" />
            </Array>
          </mxGeometry>
        </mxCell>
        <mxCell id="9KnD5VtuCWjYIkfTTjhj-131" value="" style="html=1;verticalAlign=bottom;endArrow=block;curved=0;rounded=0;exitX=1;exitY=0.713;exitDx=0;exitDy=0;exitPerimeter=0;entryX=0;entryY=0.5;entryDx=0;entryDy=0;" edge="1" parent="1" source="9KnD5VtuCWjYIkfTTjhj-54" target="9KnD5VtuCWjYIkfTTjhj-72">
          <mxGeometry x="-0.0032" width="80" relative="1" as="geometry">
            <mxPoint x="440" y="960" as="sourcePoint" />
            <mxPoint x="730" y="860" as="targetPoint" />
            <mxPoint as="offset" />
            <Array as="points">
              <mxPoint x="480" y="936" />
              <mxPoint x="480" y="810" />
              <mxPoint x="630" y="810" />
              <mxPoint x="630" y="850" />
              <mxPoint x="630" y="868" />
            </Array>
          </mxGeometry>
        </mxCell>
        <mxCell id="9KnD5VtuCWjYIkfTTjhj-132" value="订单一览表" style="swimlane;fontStyle=1;align=center;verticalAlign=top;childLayout=stackLayout;horizontal=1;startSize=26;horizontalStack=0;resizeParent=1;resizeParentMax=0;resizeLast=0;collapsible=1;marginBottom=0;whiteSpace=wrap;html=1;" vertex="1" parent="1">
          <mxGeometry x="665" y="1080" width="100" height="110" as="geometry" />
        </mxCell>
        <mxCell id="9KnD5VtuCWjYIkfTTjhj-133" value="订单目录" style="text;strokeColor=none;fillColor=none;align=center;verticalAlign=top;spacingLeft=4;spacingRight=4;overflow=hidden;rotatable=0;points=[[0,0.5],[1,0.5]];portConstraint=eastwest;whiteSpace=wrap;html=1;" vertex="1" parent="9KnD5VtuCWjYIkfTTjhj-132">
          <mxGeometry y="26" width="100" height="26" as="geometry" />
        </mxCell>
        <mxCell id="9KnD5VtuCWjYIkfTTjhj-134" value="" style="line;strokeWidth=1;fillColor=none;align=left;verticalAlign=middle;spacingTop=-1;spacingLeft=3;spacingRight=3;rotatable=0;labelPosition=right;points=[];portConstraint=eastwest;strokeColor=inherit;" vertex="1" parent="9KnD5VtuCWjYIkfTTjhj-132">
          <mxGeometry y="52" width="100" height="8" as="geometry" />
        </mxCell>
        <mxCell id="9KnD5VtuCWjYIkfTTjhj-135" value="订单删除&lt;br&gt;标记发货" style="text;strokeColor=none;fillColor=none;align=center;verticalAlign=top;spacingLeft=4;spacingRight=4;overflow=hidden;rotatable=0;points=[[0,0.5],[1,0.5]];portConstraint=eastwest;whiteSpace=wrap;html=1;" vertex="1" parent="9KnD5VtuCWjYIkfTTjhj-132">
          <mxGeometry y="60" width="100" height="50" as="geometry" />
        </mxCell>
        <mxCell id="9KnD5VtuCWjYIkfTTjhj-136" value="用户一览表" style="swimlane;fontStyle=1;align=center;verticalAlign=top;childLayout=stackLayout;horizontal=1;startSize=26;horizontalStack=0;resizeParent=1;resizeParentMax=0;resizeLast=0;collapsible=1;marginBottom=0;whiteSpace=wrap;html=1;" vertex="1" parent="1">
          <mxGeometry x="240" y="1080" width="100" height="120" as="geometry" />
        </mxCell>
        <mxCell id="9KnD5VtuCWjYIkfTTjhj-137" value="用户目录" style="text;strokeColor=none;fillColor=none;align=center;verticalAlign=top;spacingLeft=4;spacingRight=4;overflow=hidden;rotatable=0;points=[[0,0.5],[1,0.5]];portConstraint=eastwest;whiteSpace=wrap;html=1;" vertex="1" parent="9KnD5VtuCWjYIkfTTjhj-136">
          <mxGeometry y="26" width="100" height="26" as="geometry" />
        </mxCell>
        <mxCell id="9KnD5VtuCWjYIkfTTjhj-138" value="" style="line;strokeWidth=1;fillColor=none;align=left;verticalAlign=middle;spacingTop=-1;spacingLeft=3;spacingRight=3;rotatable=0;labelPosition=right;points=[];portConstraint=eastwest;strokeColor=inherit;" vertex="1" parent="9KnD5VtuCWjYIkfTTjhj-136">
          <mxGeometry y="52" width="100" height="8" as="geometry" />
        </mxCell>
        <mxCell id="9KnD5VtuCWjYIkfTTjhj-139" value="禁用账户&lt;br&gt;查看用户信息&lt;br&gt;重置密码" style="text;strokeColor=none;fillColor=none;align=center;verticalAlign=top;spacingLeft=4;spacingRight=4;overflow=hidden;rotatable=0;points=[[0,0.5],[1,0.5]];portConstraint=eastwest;whiteSpace=wrap;html=1;" vertex="1" parent="9KnD5VtuCWjYIkfTTjhj-136">
          <mxGeometry y="60" width="100" height="60" as="geometry" />
        </mxCell>
        <mxCell id="9KnD5VtuCWjYIkfTTjhj-141" value="" style="html=1;verticalAlign=bottom;endArrow=block;curved=0;rounded=0;entryX=-0.004;entryY=-0.043;entryDx=0;entryDy=0;entryPerimeter=0;exitX=1;exitY=0.5;exitDx=0;exitDy=0;" edge="1" parent="1" source="9KnD5VtuCWjYIkfTTjhj-110" target="9KnD5VtuCWjYIkfTTjhj-135">
          <mxGeometry x="-0.0032" width="80" relative="1" as="geometry">
            <mxPoint x="620" y="1150" as="sourcePoint" />
            <mxPoint x="664.6800000000001" y="1149.996" as="targetPoint" />
            <mxPoint as="offset" />
          </mxGeometry>
        </mxCell>
        <mxCell id="9KnD5VtuCWjYIkfTTjhj-142" value="" style="html=1;verticalAlign=bottom;endArrow=block;curved=0;rounded=0;entryX=1.008;entryY=0.27;entryDx=0;entryDy=0;entryPerimeter=0;exitX=-0.007;exitY=0.721;exitDx=0;exitDy=0;exitPerimeter=0;" edge="1" parent="1" source="9KnD5VtuCWjYIkfTTjhj-110" target="9KnD5VtuCWjYIkfTTjhj-139">
          <mxGeometry x="-0.0032" width="80" relative="1" as="geometry">
            <mxPoint x="430" y="1160" as="sourcePoint" />
            <mxPoint x="524.6800000000001" y="979.7360000000001" as="targetPoint" />
            <mxPoint as="offset" />
          </mxGeometry>
        </mxCell>
        <mxCell id="9KnD5VtuCWjYIkfTTjhj-147" value="" style="endArrow=none;html=1;endSize=12;startArrow=diamondThin;startSize=14;startFill=0;edgeStyle=orthogonalEdgeStyle;rounded=0;exitX=0.5;exitY=0;exitDx=0;exitDy=0;entryX=0.5;entryY=1;entryDx=0;entryDy=0;entryPerimeter=0;endFill=0;" edge="1" parent="1" source="9KnD5VtuCWjYIkfTTjhj-136" target="9KnD5VtuCWjYIkfTTjhj-54">
          <mxGeometry relative="1" as="geometry">
            <mxPoint x="490" y="970" as="sourcePoint" />
            <mxPoint x="650" y="970" as="targetPoint" />
            <Array as="points">
              <mxPoint x="320" y="1000" />
              <mxPoint x="350" y="1000" />
            </Array>
          </mxGeometry>
        </mxCell>
        <mxCell id="9KnD5VtuCWjYIkfTTjhj-148" value="1" style="edgeLabel;resizable=0;html=1;align=left;verticalAlign=top;" connectable="0" vertex="1" parent="9KnD5VtuCWjYIkfTTjhj-147">
          <mxGeometry x="-1" relative="1" as="geometry">
            <mxPoint x="10" y="-30" as="offset" />
          </mxGeometry>
        </mxCell>
        <mxCell id="9KnD5VtuCWjYIkfTTjhj-149" value="*" style="edgeLabel;resizable=0;html=1;align=right;verticalAlign=top;" connectable="0" vertex="1" parent="9KnD5VtuCWjYIkfTTjhj-147">
          <mxGeometry x="1" relative="1" as="geometry">
            <mxPoint y="10" as="offset" />
          </mxGeometry>
        </mxCell>
        <mxCell id="9KnD5VtuCWjYIkfTTjhj-154" value="" style="endArrow=none;html=1;endSize=12;startArrow=diamondThin;startSize=14;startFill=0;edgeStyle=orthogonalEdgeStyle;rounded=0;exitX=0.5;exitY=0;exitDx=0;exitDy=0;endFill=0;entryX=1;entryY=0.5;entryDx=0;entryDy=0;" edge="1" parent="1" target="9KnD5VtuCWjYIkfTTjhj-67">
          <mxGeometry relative="1" as="geometry">
            <mxPoint x="746.44" y="1080" as="sourcePoint" />
            <mxPoint x="585" y="995.5840000000001" as="targetPoint" />
            <Array as="points">
              <mxPoint x="746" y="976" />
            </Array>
          </mxGeometry>
        </mxCell>
        <mxCell id="9KnD5VtuCWjYIkfTTjhj-155" value="1" style="edgeLabel;resizable=0;html=1;align=left;verticalAlign=top;" connectable="0" vertex="1" parent="9KnD5VtuCWjYIkfTTjhj-154">
          <mxGeometry x="-1" relative="1" as="geometry">
            <mxPoint x="5" y="-40" as="offset" />
          </mxGeometry>
        </mxCell>
        <mxCell id="9KnD5VtuCWjYIkfTTjhj-156" value="*" style="edgeLabel;resizable=0;html=1;align=right;verticalAlign=top;" connectable="0" vertex="1" parent="9KnD5VtuCWjYIkfTTjhj-154">
          <mxGeometry x="1" relative="1" as="geometry">
            <mxPoint x="15" y="-26" as="offset" />
          </mxGeometry>
        </mxCell>
        <mxCell id="9KnD5VtuCWjYIkfTTjhj-157" value="@老板" style="swimlane;fontStyle=1;align=center;verticalAlign=top;childLayout=stackLayout;horizontal=1;startSize=26;horizontalStack=0;resizeParent=1;resizeParentMax=0;resizeLast=0;collapsible=1;marginBottom=0;whiteSpace=wrap;html=1;" vertex="1" parent="1">
          <mxGeometry x="240" y="1250" width="90" height="120" as="geometry" />
        </mxCell>
        <mxCell id="9KnD5VtuCWjYIkfTTjhj-158" value="用户名&lt;br&gt;密码" style="text;strokeColor=none;fillColor=none;align=center;verticalAlign=top;spacingLeft=4;spacingRight=4;overflow=hidden;rotatable=0;points=[[0,0.5],[1,0.5]];portConstraint=eastwest;whiteSpace=wrap;html=1;" vertex="1" parent="9KnD5VtuCWjYIkfTTjhj-157">
          <mxGeometry y="26" width="90" height="44" as="geometry" />
        </mxCell>
        <mxCell id="9KnD5VtuCWjYIkfTTjhj-159" value="" style="line;strokeWidth=1;fillColor=none;align=left;verticalAlign=middle;spacingTop=-1;spacingLeft=3;spacingRight=3;rotatable=0;labelPosition=right;points=[];portConstraint=eastwest;strokeColor=inherit;" vertex="1" parent="9KnD5VtuCWjYIkfTTjhj-157">
          <mxGeometry y="70" width="90" height="8" as="geometry" />
        </mxCell>
        <mxCell id="9KnD5VtuCWjYIkfTTjhj-160" value="订单浏览&lt;br&gt;员工管理" style="text;strokeColor=none;fillColor=none;align=center;verticalAlign=top;spacingLeft=4;spacingRight=4;overflow=hidden;rotatable=0;points=[[0,0.5],[1,0.5]];portConstraint=eastwest;whiteSpace=wrap;html=1;" vertex="1" parent="9KnD5VtuCWjYIkfTTjhj-157">
          <mxGeometry y="78" width="90" height="42" as="geometry" />
        </mxCell>
        <mxCell id="9KnD5VtuCWjYIkfTTjhj-161" value="管理员一览" style="swimlane;fontStyle=1;align=center;verticalAlign=top;childLayout=stackLayout;horizontal=1;startSize=26;horizontalStack=0;resizeParent=1;resizeParentMax=0;resizeLast=0;collapsible=1;marginBottom=0;whiteSpace=wrap;html=1;" vertex="1" parent="1">
          <mxGeometry x="460" y="1250" width="100" height="120" as="geometry" />
        </mxCell>
        <mxCell id="9KnD5VtuCWjYIkfTTjhj-162" value="管理员目录" style="text;strokeColor=none;fillColor=none;align=center;verticalAlign=top;spacingLeft=4;spacingRight=4;overflow=hidden;rotatable=0;points=[[0,0.5],[1,0.5]];portConstraint=eastwest;whiteSpace=wrap;html=1;" vertex="1" parent="9KnD5VtuCWjYIkfTTjhj-161">
          <mxGeometry y="26" width="100" height="26" as="geometry" />
        </mxCell>
        <mxCell id="9KnD5VtuCWjYIkfTTjhj-163" value="" style="line;strokeWidth=1;fillColor=none;align=left;verticalAlign=middle;spacingTop=-1;spacingLeft=3;spacingRight=3;rotatable=0;labelPosition=right;points=[];portConstraint=eastwest;strokeColor=inherit;" vertex="1" parent="9KnD5VtuCWjYIkfTTjhj-161">
          <mxGeometry y="52" width="100" height="8" as="geometry" />
        </mxCell>
        <mxCell id="9KnD5VtuCWjYIkfTTjhj-164" value="添加管理员&lt;br&gt;删除管理员&lt;br&gt;修改管理员信息" style="text;strokeColor=none;fillColor=none;align=center;verticalAlign=top;spacingLeft=4;spacingRight=4;overflow=hidden;rotatable=0;points=[[0,0.5],[1,0.5]];portConstraint=eastwest;whiteSpace=wrap;html=1;" vertex="1" parent="9KnD5VtuCWjYIkfTTjhj-161">
          <mxGeometry y="60" width="100" height="60" as="geometry" />
        </mxCell>
        <mxCell id="9KnD5VtuCWjYIkfTTjhj-165" value="" style="endArrow=none;html=1;endSize=12;startArrow=diamondThin;startSize=14;startFill=0;edgeStyle=orthogonalEdgeStyle;rounded=0;exitX=0.5;exitY=0;exitDx=0;exitDy=0;entryX=0.437;entryY=0.991;entryDx=0;entryDy=0;entryPerimeter=0;endFill=0;" edge="1" parent="1" source="9KnD5VtuCWjYIkfTTjhj-161" target="9KnD5VtuCWjYIkfTTjhj-110">
          <mxGeometry relative="1" as="geometry">
            <mxPoint x="756.44" y="1090" as="sourcePoint" />
            <mxPoint x="530" y="1190" as="targetPoint" />
            <Array as="points">
              <mxPoint x="510" y="1210" />
              <mxPoint x="491" y="1210" />
              <mxPoint x="491" y="1169" />
            </Array>
          </mxGeometry>
        </mxCell>
        <mxCell id="9KnD5VtuCWjYIkfTTjhj-166" value="1" style="edgeLabel;resizable=0;html=1;align=left;verticalAlign=top;" connectable="0" vertex="1" parent="9KnD5VtuCWjYIkfTTjhj-165">
          <mxGeometry x="-1" relative="1" as="geometry">
            <mxPoint x="5" y="-40" as="offset" />
          </mxGeometry>
        </mxCell>
        <mxCell id="9KnD5VtuCWjYIkfTTjhj-167" value="*" style="edgeLabel;resizable=0;html=1;align=right;verticalAlign=top;" connectable="0" vertex="1" parent="9KnD5VtuCWjYIkfTTjhj-165">
          <mxGeometry x="1" relative="1" as="geometry">
            <mxPoint x="-5" y="15" as="offset" />
          </mxGeometry>
        </mxCell>
        <mxCell id="9KnD5VtuCWjYIkfTTjhj-169" value="1" style="text;html=1;align=center;verticalAlign=middle;resizable=0;points=[];autosize=1;strokeColor=none;fillColor=none;" vertex="1" parent="1">
          <mxGeometry x="240" y="710" width="30" height="30" as="geometry" />
        </mxCell>
        <mxCell id="9KnD5VtuCWjYIkfTTjhj-173" value="1" style="text;html=1;align=center;verticalAlign=middle;resizable=0;points=[];autosize=1;strokeColor=none;fillColor=none;" vertex="1" parent="1">
          <mxGeometry x="240" y="980" width="30" height="30" as="geometry" />
        </mxCell>
        <mxCell id="9KnD5VtuCWjYIkfTTjhj-176" value="1" style="text;html=1;align=center;verticalAlign=middle;resizable=0;points=[];autosize=1;strokeColor=none;fillColor=none;" vertex="1" parent="1">
          <mxGeometry x="790" y="710" width="30" height="30" as="geometry" />
        </mxCell>
        <mxCell id="9KnD5VtuCWjYIkfTTjhj-177" value="1" style="text;html=1;align=center;verticalAlign=middle;resizable=0;points=[];autosize=1;strokeColor=none;fillColor=none;" vertex="1" parent="1">
          <mxGeometry x="790" y="980" width="30" height="30" as="geometry" />
        </mxCell>
        <mxCell id="9KnD5VtuCWjYIkfTTjhj-180" style="edgeStyle=orthogonalEdgeStyle;rounded=0;orthogonalLoop=1;jettySize=auto;html=1;entryX=-0.007;entryY=0.653;entryDx=0;entryDy=0;entryPerimeter=0;" edge="1" parent="1" source="9KnD5VtuCWjYIkfTTjhj-160" target="9KnD5VtuCWjYIkfTTjhj-164">
          <mxGeometry relative="1" as="geometry" />
        </mxCell>
        <mxCell id="9KnD5VtuCWjYIkfTTjhj-181" style="edgeStyle=orthogonalEdgeStyle;rounded=0;orthogonalLoop=1;jettySize=auto;html=1;entryX=0.531;entryY=1;entryDx=0;entryDy=0;entryPerimeter=0;" edge="1" parent="1" target="9KnD5VtuCWjYIkfTTjhj-135">
          <mxGeometry relative="1" as="geometry">
            <mxPoint x="284" y="1370" as="sourcePoint" />
            <Array as="points">
              <mxPoint x="284" y="1400" />
              <mxPoint x="718" y="1400" />
            </Array>
          </mxGeometry>
        </mxCell>
        <mxCell id="9KnD5VtuCWjYIkfTTjhj-183" value="" style="rounded=0;whiteSpace=wrap;html=1;" vertex="1" parent="1">
          <mxGeometry x="190" y="1000" width="30" height="10" as="geometry" />
        </mxCell>
        <mxCell id="9KnD5VtuCWjYIkfTTjhj-184" value="2" style="text;html=1;align=center;verticalAlign=middle;resizable=0;points=[];autosize=1;strokeColor=none;fillColor=none;" vertex="1" parent="1">
          <mxGeometry x="190" y="1010" width="30" height="30" as="geometry" />
        </mxCell>
        <mxCell id="9KnD5VtuCWjYIkfTTjhj-185" value="1" style="text;html=1;align=center;verticalAlign=middle;resizable=0;points=[];autosize=1;strokeColor=none;fillColor=none;" vertex="1" parent="1">
          <mxGeometry x="250" y="720" width="30" height="30" as="geometry" />
        </mxCell>
        <mxCell id="9KnD5VtuCWjYIkfTTjhj-186" value="2" style="text;html=1;align=center;verticalAlign=middle;resizable=0;points=[];autosize=1;strokeColor=none;fillColor=none;" vertex="1" parent="1">
          <mxGeometry x="190" y="1420" width="30" height="30" as="geometry" />
        </mxCell>
        <mxCell id="9KnD5VtuCWjYIkfTTjhj-187" value="2" style="text;html=1;align=center;verticalAlign=middle;resizable=0;points=[];autosize=1;strokeColor=none;fillColor=none;" vertex="1" parent="1">
          <mxGeometry x="790" y="1010" width="30" height="30" as="geometry" />
        </mxCell>
        <mxCell id="9KnD5VtuCWjYIkfTTjhj-188" value="2" style="text;html=1;align=center;verticalAlign=middle;resizable=0;points=[];autosize=1;strokeColor=none;fillColor=none;" vertex="1" parent="1">
          <mxGeometry x="790" y="1420" width="30" height="30" as="geometry" />
        </mxCell>
        <mxCell id="9KnD5VtuCWjYIkfTTjhj-189" value="商品一览表" style="swimlane;fontStyle=1;align=center;verticalAlign=top;childLayout=stackLayout;horizontal=1;startSize=26;horizontalStack=0;resizeParent=1;resizeParentMax=0;resizeLast=0;collapsible=1;marginBottom=0;whiteSpace=wrap;html=1;" vertex="1" parent="1">
          <mxGeometry x="890" y="1080" width="100" height="150" as="geometry" />
        </mxCell>
        <mxCell id="9KnD5VtuCWjYIkfTTjhj-190" value="商品目录" style="text;strokeColor=none;fillColor=none;align=center;verticalAlign=top;spacingLeft=4;spacingRight=4;overflow=hidden;rotatable=0;points=[[0,0.5],[1,0.5]];portConstraint=eastwest;whiteSpace=wrap;html=1;" vertex="1" parent="9KnD5VtuCWjYIkfTTjhj-189">
          <mxGeometry y="26" width="100" height="26" as="geometry" />
        </mxCell>
        <mxCell id="9KnD5VtuCWjYIkfTTjhj-191" value="" style="line;strokeWidth=1;fillColor=none;align=left;verticalAlign=middle;spacingTop=-1;spacingLeft=3;spacingRight=3;rotatable=0;labelPosition=right;points=[];portConstraint=eastwest;strokeColor=inherit;" vertex="1" parent="9KnD5VtuCWjYIkfTTjhj-189">
          <mxGeometry y="52" width="100" height="8" as="geometry" />
        </mxCell>
        <mxCell id="9KnD5VtuCWjYIkfTTjhj-192" value="检索&lt;br&gt;添加商品&lt;br&gt;编辑商品&lt;br&gt;删除商品&lt;br&gt;更新商品" style="text;strokeColor=none;fillColor=none;align=center;verticalAlign=top;spacingLeft=4;spacingRight=4;overflow=hidden;rotatable=0;points=[[0,0.5],[1,0.5]];portConstraint=eastwest;whiteSpace=wrap;html=1;" vertex="1" parent="9KnD5VtuCWjYIkfTTjhj-189">
          <mxGeometry y="60" width="100" height="90" as="geometry" />
        </mxCell>
        <mxCell id="9KnD5VtuCWjYIkfTTjhj-193" style="edgeStyle=orthogonalEdgeStyle;rounded=0;orthogonalLoop=1;jettySize=auto;html=1;entryX=0;entryY=0.5;entryDx=0;entryDy=0;" edge="1" parent="1" target="9KnD5VtuCWjYIkfTTjhj-190">
          <mxGeometry relative="1" as="geometry">
            <mxPoint x="580" y="1120" as="sourcePoint" />
            <Array as="points">
              <mxPoint x="640" y="1120" />
              <mxPoint x="640" y="1220" />
              <mxPoint x="850" y="1220" />
              <mxPoint x="850" y="1119" />
            </Array>
          </mxGeometry>
        </mxCell>
        <mxCell id="9KnD5VtuCWjYIkfTTjhj-194" value="商品" style="swimlane;fontStyle=1;align=center;verticalAlign=top;childLayout=stackLayout;horizontal=1;startSize=26;horizontalStack=0;resizeParent=1;resizeParentMax=0;resizeLast=0;collapsible=1;marginBottom=0;whiteSpace=wrap;html=1;" vertex="1" parent="1">
          <mxGeometry x="1030" y="1088" width="80" height="170" as="geometry" />
        </mxCell>
        <mxCell id="9KnD5VtuCWjYIkfTTjhj-195" value="ID&lt;br&gt;名称&lt;br&gt;单价&lt;br&gt;上架数量&lt;br&gt;描述信息" style="text;strokeColor=none;fillColor=none;align=center;verticalAlign=top;spacingLeft=4;spacingRight=4;overflow=hidden;rotatable=0;points=[[0,0.5],[1,0.5]];portConstraint=eastwest;whiteSpace=wrap;html=1;" vertex="1" parent="9KnD5VtuCWjYIkfTTjhj-194">
          <mxGeometry y="26" width="80" height="84" as="geometry" />
        </mxCell>
        <mxCell id="9KnD5VtuCWjYIkfTTjhj-196" value="" style="line;strokeWidth=1;fillColor=none;align=left;verticalAlign=middle;spacingTop=-1;spacingLeft=3;spacingRight=3;rotatable=0;labelPosition=right;points=[];portConstraint=eastwest;strokeColor=inherit;" vertex="1" parent="9KnD5VtuCWjYIkfTTjhj-194">
          <mxGeometry y="110" width="80" height="8" as="geometry" />
        </mxCell>
        <mxCell id="9KnD5VtuCWjYIkfTTjhj-197" value="价格更新&lt;br&gt;售出&lt;br&gt;补充" style="text;strokeColor=none;fillColor=none;align=center;verticalAlign=top;spacingLeft=4;spacingRight=4;overflow=hidden;rotatable=0;points=[[0,0.5],[1,0.5]];portConstraint=eastwest;whiteSpace=wrap;html=1;" vertex="1" parent="9KnD5VtuCWjYIkfTTjhj-194">
          <mxGeometry y="118" width="80" height="52" as="geometry" />
        </mxCell>
        <mxCell id="9KnD5VtuCWjYIkfTTjhj-213" style="edgeStyle=orthogonalEdgeStyle;rounded=0;orthogonalLoop=1;jettySize=auto;html=1;exitX=0.5;exitY=0;exitDx=0;exitDy=0;endArrow=none;endFill=0;" edge="1" parent="1">
          <mxGeometry relative="1" as="geometry">
            <mxPoint x="1070" y="1323" as="targetPoint" />
            <mxPoint x="995" y="1363" as="sourcePoint" />
            <Array as="points">
              <mxPoint x="995" y="1323" />
            </Array>
          </mxGeometry>
        </mxCell>
        <mxCell id="9KnD5VtuCWjYIkfTTjhj-198" value="特价商品" style="swimlane;fontStyle=1;align=center;verticalAlign=top;childLayout=stackLayout;horizontal=1;startSize=26;horizontalStack=0;resizeParent=1;resizeParentMax=0;resizeLast=0;collapsible=1;marginBottom=0;whiteSpace=wrap;html=1;" vertex="1" parent="1">
          <mxGeometry x="950" y="1360" width="90" height="78" as="geometry" />
        </mxCell>
        <mxCell id="9KnD5VtuCWjYIkfTTjhj-200" value="" style="line;strokeWidth=1;fillColor=none;align=left;verticalAlign=middle;spacingTop=-1;spacingLeft=3;spacingRight=3;rotatable=0;labelPosition=right;points=[];portConstraint=eastwest;strokeColor=inherit;" vertex="1" parent="9KnD5VtuCWjYIkfTTjhj-198">
          <mxGeometry y="26" width="90" height="8" as="geometry" />
        </mxCell>
        <mxCell id="9KnD5VtuCWjYIkfTTjhj-199" value="&lt;div style=&quot;&quot;&gt;&lt;span style=&quot;background-color: initial;&quot;&gt;开始日期&lt;/span&gt;&lt;/div&gt;&lt;div style=&quot;&quot;&gt;&lt;span style=&quot;background-color: initial;&quot;&gt;结束日期&lt;/span&gt;&lt;/div&gt;" style="text;strokeColor=none;fillColor=none;align=center;verticalAlign=top;spacingLeft=4;spacingRight=4;overflow=hidden;rotatable=0;points=[[0,0.5],[1,0.5]];portConstraint=eastwest;whiteSpace=wrap;html=1;" vertex="1" parent="9KnD5VtuCWjYIkfTTjhj-198">
          <mxGeometry y="34" width="90" height="44" as="geometry" />
        </mxCell>
        <mxCell id="9KnD5VtuCWjYIkfTTjhj-212" style="edgeStyle=orthogonalEdgeStyle;rounded=0;orthogonalLoop=1;jettySize=auto;html=1;endArrow=none;endFill=0;exitX=0.5;exitY=0;exitDx=0;exitDy=0;" edge="1" parent="1">
          <mxGeometry relative="1" as="geometry">
            <mxPoint x="1070" y="1293" as="targetPoint" />
            <mxPoint x="1145" y="1363" as="sourcePoint" />
            <Array as="points">
              <mxPoint x="1145" y="1323" />
              <mxPoint x="1071" y="1323" />
            </Array>
          </mxGeometry>
        </mxCell>
        <mxCell id="9KnD5VtuCWjYIkfTTjhj-210" value="" style="endArrow=block;endSize=16;endFill=0;html=1;rounded=0;edgeStyle=elbowEdgeStyle;elbow=vertical;" edge="1" parent="1">
          <mxGeometry width="160" relative="1" as="geometry">
            <mxPoint x="1069.9" y="1302.38" as="sourcePoint" />
            <mxPoint x="1070" y="1260" as="targetPoint" />
          </mxGeometry>
        </mxCell>
        <mxCell id="9KnD5VtuCWjYIkfTTjhj-218" value="1" style="endArrow=none;html=1;endSize=12;startArrow=diamondThin;startSize=14;startFill=0;edgeStyle=orthogonalEdgeStyle;align=left;verticalAlign=bottom;rounded=0;exitX=1;exitY=0.5;exitDx=0;exitDy=0;entryX=0;entryY=0.5;entryDx=0;entryDy=0;endFill=0;" edge="1" parent="1" source="9KnD5VtuCWjYIkfTTjhj-192" target="9KnD5VtuCWjYIkfTTjhj-195">
          <mxGeometry x="-1" y="3" relative="1" as="geometry">
            <mxPoint x="780" y="1210" as="sourcePoint" />
            <mxPoint x="940" y="1210" as="targetPoint" />
          </mxGeometry>
        </mxCell>
        <mxCell id="9KnD5VtuCWjYIkfTTjhj-220" value="*" style="edgeLabel;resizable=0;html=1;align=right;verticalAlign=top;" connectable="0" vertex="1" parent="1">
          <mxGeometry x="559" y="1027.4000159999975" as="geometry">
            <mxPoint x="467" y="116" as="offset" />
          </mxGeometry>
        </mxCell>
        <mxCell id="9KnD5VtuCWjYIkfTTjhj-222" value="计量商品" style="swimlane;fontStyle=1;align=center;verticalAlign=top;childLayout=stackLayout;horizontal=1;startSize=26;horizontalStack=0;resizeParent=1;resizeParentMax=0;resizeLast=0;collapsible=1;marginBottom=0;whiteSpace=wrap;html=1;" vertex="1" parent="1">
          <mxGeometry x="1100" y="1364" width="90" height="140" as="geometry" />
        </mxCell>
        <mxCell id="9KnD5VtuCWjYIkfTTjhj-223" value="*单价&lt;br&gt;计量单位&lt;br&gt;计价方式" style="text;strokeColor=none;fillColor=none;align=center;verticalAlign=top;spacingLeft=4;spacingRight=4;overflow=hidden;rotatable=0;points=[[0,0.5],[1,0.5]];portConstraint=eastwest;whiteSpace=wrap;html=1;" vertex="1" parent="9KnD5VtuCWjYIkfTTjhj-222">
          <mxGeometry y="26" width="90" height="54" as="geometry" />
        </mxCell>
        <mxCell id="9KnD5VtuCWjYIkfTTjhj-224" value="" style="line;strokeWidth=1;fillColor=none;align=left;verticalAlign=middle;spacingTop=-1;spacingLeft=3;spacingRight=3;rotatable=0;labelPosition=right;points=[];portConstraint=eastwest;strokeColor=inherit;" vertex="1" parent="9KnD5VtuCWjYIkfTTjhj-222">
          <mxGeometry y="80" width="90" height="8" as="geometry" />
        </mxCell>
        <mxCell id="9KnD5VtuCWjYIkfTTjhj-225" value="*价格更新&lt;br style=&quot;border-color: var(--border-color);&quot;&gt;*售出&lt;br style=&quot;border-color: var(--border-color);&quot;&gt;*补充" style="text;strokeColor=none;fillColor=none;align=center;verticalAlign=top;spacingLeft=4;spacingRight=4;overflow=hidden;rotatable=0;points=[[0,0.5],[1,0.5]];portConstraint=eastwest;whiteSpace=wrap;html=1;" vertex="1" parent="9KnD5VtuCWjYIkfTTjhj-222">
          <mxGeometry y="88" width="90" height="52" as="geometry" />
        </mxCell>
        <mxCell id="9KnD5VtuCWjYIkfTTjhj-226" value="3" style="text;html=1;align=center;verticalAlign=middle;resizable=0;points=[];autosize=1;strokeColor=none;fillColor=none;" vertex="1" parent="1">
          <mxGeometry x="820" y="1010" width="30" height="30" as="geometry" />
        </mxCell>
        <mxCell id="9KnD5VtuCWjYIkfTTjhj-228" value="3" style="text;html=1;align=center;verticalAlign=middle;resizable=0;points=[];autosize=1;strokeColor=none;fillColor=none;" vertex="1" parent="1">
          <mxGeometry x="1220" y="1010" width="30" height="30" as="geometry" />
        </mxCell>
        <mxCell id="9KnD5VtuCWjYIkfTTjhj-229" value="3" style="text;html=1;align=center;verticalAlign=middle;resizable=0;points=[];autosize=1;strokeColor=none;fillColor=none;" vertex="1" parent="1">
          <mxGeometry x="820" y="1510" width="30" height="30" as="geometry" />
        </mxCell>
        <mxCell id="9KnD5VtuCWjYIkfTTjhj-230" value="3" style="text;html=1;align=center;verticalAlign=middle;resizable=0;points=[];autosize=1;strokeColor=none;fillColor=none;" vertex="1" parent="1">
          <mxGeometry x="1220" y="1510" width="30" height="30" as="geometry" />
        </mxCell>
        <mxCell id="9KnD5VtuCWjYIkfTTjhj-231" value="" style="rounded=0;whiteSpace=wrap;html=1;" vertex="1" parent="1">
          <mxGeometry x="820" y="1000" width="30" height="10" as="geometry" />
        </mxCell>
        <mxCell id="9KnD5VtuCWjYIkfTTjhj-233" style="edgeStyle=orthogonalEdgeStyle;rounded=0;orthogonalLoop=1;jettySize=auto;html=1;entryX=0.5;entryY=0;entryDx=0;entryDy=0;exitX=1;exitY=0.5;exitDx=0;exitDy=0;endArrow=block;endFill=1;" edge="1" parent="1" source="9KnD5VtuCWjYIkfTTjhj-54" target="9KnD5VtuCWjYIkfTTjhj-189">
          <mxGeometry relative="1" as="geometry">
            <Array as="points">
              <mxPoint x="430" y="919" />
              <mxPoint x="430" y="1020" />
              <mxPoint x="940" y="1020" />
            </Array>
          </mxGeometry>
        </mxCell>
      </root>
    </mxGraphModel>
  </diagram>
</mxfile>
